<svg xmlns="http://www.w3.org/2000/svg" shape-rendering="geometricPrecision" text-rendering="geometricPrecision" image-rendering="optimizeQuality" fill-rule="evenodd" clip-rule="evenodd" viewBox="0 0 512 243.236"><path fill-rule="nonzero" d="M480.512 96.142c.005.155.006.311.006.468l-.006-.468zm-449.025 0c-.005.155-.006.311-.006.468l.006-.468zm-.006 50.483c0 .157.002.312.006.467l-.006-.467zm449.037 0c0 .157-.001.312-.006.467l.006-.467zM361.501 62.956h-8.953c-11.51 0-20.907 9.397-20.907 20.906v12.311H180.358V83.862c0-11.509-9.397-20.906-20.906-20.906h-8.953V26.825C150.499 12.059 138.44 0 123.674 0H77.156C62.388 0 50.332 12.057 50.332 26.825v51.643h-.71c-8.98 0-16.471 6.583-17.896 15.17H20.699C9.334 93.638 0 102.972 0 114.338v14.559c0 11.366 9.334 20.7 20.699 20.7h11.028c1.43 8.573 8.936 15.17 17.895 15.17h.71v51.644c0 14.766 12.058 26.825 26.824 26.825h46.518c14.765 0 26.825-12.06 26.825-26.825V180.28h8.953c5.755 0 10.985-2.35 14.77-6.136 3.786-3.785 6.136-9.014 6.136-14.771v-12.311h151.283v12.311c0 5.757 2.35 10.986 6.136 14.771 3.785 3.786 9.015 6.136 14.771 6.136h8.953v36.131c0 14.765 12.059 26.825 26.825 26.825h46.517c14.766 0 26.825-12.059 26.825-26.825v-51.644h.709c8.959 0 16.466-6.597 17.895-15.17H491.3c11.366 0 20.7-9.334 20.7-20.7v-14.559c0-11.366-9.334-20.7-20.7-20.7h-11.027c-1.425-8.587-8.915-15.17-17.896-15.17h-.709V26.825C461.668 12.057 449.611 0 434.843 0h-46.517c-14.767 0-26.825 12.059-26.825 26.825v36.131z"/><path fill="#fff" d="M180.403 103.296h151.238v36.643H180.403z"/><path fill="#8296A0" d="M159.452 70.079h-8.953v103.078h8.953c7.581 0 13.783-6.202 13.783-13.784V83.862c0-7.581-6.209-13.783-13.783-13.783z"/><path fill="#fff" d="M49.622 85.591h.71v72.053h-.71c-6.058 0-11.018-4.958-11.018-11.019V96.61c0-6.061 4.958-11.019 11.018-11.019zm-28.923 15.17h10.782v41.713H20.699c-7.467 0-13.576-6.109-13.576-13.577v-14.559c0-7.468 6.109-13.577 13.576-13.577z"/><path fill="#415E6D" d="M77.156 7.123h46.518c10.836 0 19.701 8.868 19.701 19.702v189.586c0 10.834-8.867 19.702-19.701 19.702H77.156c-10.833 0-19.702-8.866-19.702-19.702V26.825c0-10.836 8.866-19.702 19.702-19.702z"/><path fill="#8296A0" fill-rule="nonzero" d="M109.823 26.612a3.562 3.562 0 010-7.123c6.4 0 12.219 2.617 16.433 6.831s6.831 10.033 6.831 16.433v24.46a3.562 3.562 0 01-7.123 0v-24.46c0-4.436-1.817-8.471-4.744-11.397-2.926-2.926-6.961-4.744-11.397-4.744z"/><path fill="#8296A0" d="M352.548 70.079h8.953v103.078h-8.953c-7.581 0-13.784-6.202-13.784-13.784V83.862c0-7.581 6.209-13.783 13.784-13.783z"/><path fill="#fff" d="M462.377 85.591h-.709v72.053h.709c6.058 0 11.019-4.958 11.019-11.019V96.61c0-6.061-4.958-11.019-11.019-11.019zm28.923 15.17h-10.782v41.713H491.3c7.468 0 13.576-6.109 13.576-13.577v-14.559c0-7.468-6.108-13.577-13.576-13.577z"/><path fill="#415E6D" d="M388.325 7.123h46.517c10.837 0 19.702 8.868 19.702 19.702v189.586c0 10.834-8.868 19.702-19.702 19.702h-46.517c-10.834 0-19.702-8.866-19.702-19.702V26.825c0-10.836 8.866-19.702 19.702-19.702z"/><path fill="#8296A0" fill-rule="nonzero" d="M420.992 26.612a3.562 3.562 0 010-7.123c6.4 0 12.218 2.617 16.432 6.831 4.215 4.214 6.831 10.033 6.831 16.433v24.46a3.562 3.562 0 01-7.123 0v-24.46c0-4.436-1.817-8.471-4.743-11.397s-6.962-4.744-11.397-4.744z"/></svg>